# xmcd
#
# Track frame offsets:
# 150
# 16793
# 31200
# 46583
# 59848
# 74358
# 89443
# 104810
# 134000
# 148720
# 160403
# 174063
# 200733
# 212065
# 226520
# 241205
# 252440
# 264900
#
# Disc length: 3650 seconds
#
#
# Revision: 0
# Processed by: cddbd v1.4PL0 Copyright (c) Steve Scherf et al.
# Submitted via: FreeRIP 2.35 
#
DISCID=fe0e4012
DTITLE=Outsiders, the - The very best album ever
DYEAR=2002
DGENRE=Rock
TTITLE0=Money on your back
TTITLE1=Touch
TTITLE2=Summer is here
TTITLE3=Keep on trying
TTITLE4=Lying all the time
TTITLE5=I've been loving you so long
TTITLE6=Don't you worry about me
TTITLE7=Story 16 (live)
TTITLE8=A cup of hot coffee
TTITLE9=That's your problem
TTITLE10=Bird in a cage
TTITLE11=Ballad of John B.
TTITLE12=Strange things are happening
TTITLE13=Teach me to forget you
TTITLE14=What's wrong with you
TTITLE15=I'm only tying to prove myself
TTITLE16=Thinking about today
TTITLE17=You mistreat me
EXTD=Songs from 1965 - 1969
EXTT0=
EXTT1=
EXTT2=
EXTT3=
EXTT4=
EXTT5=
EXTT6=
EXTT7=
EXTT8=
EXTT9=
EXTT10=
EXTT11=
EXTT12=
EXTT13=
EXTT14=
EXTT15=
EXTT16=
EXTT17=
PLAYORDER=
